<?xml version="1.0" encoding="UTF-8" standalone="no"?>
<!DOCTYPE svg PUBLIC "-//W3C//DTD SVG 1.1//EN"
 "http://www.w3.org/Graphics/SVG/1.1/DTD/svg11.dtd">
<!-- Generated by graphviz version 2.40.1 (20161225.0304)
 -->
<!-- Title: dependencies Pages: 1 -->
<svg width="662pt" height="211pt"
 viewBox="0.00 0.00 662.00 211.00" xmlns="http://www.w3.org/2000/svg" xmlns:xlink="http://www.w3.org/1999/xlink">
<g id="graph0" class="graph" transform="scale(1 1) rotate(0) translate(4 207)">
<title>dependencies</title>
<polygon fill="#ffffff" stroke="transparent" points="-4,4 -4,-207 658,-207 658,4 -4,4"/>
<text text-anchor="start" x="306.0091" y="-42.4" font-family="sans-serif" font-weight="bold" font-size="14.00" fill="#000000">Legend</text>
<polygon fill="#ffffb3" stroke="transparent" points="93,-10 93,-30 113,-30 113,-10 93,-10"/>
<text text-anchor="start" x="116.629" y="-15.4" font-family="sans-serif" font-size="14.00" fill="#000000"> &#160;Declarations</text>
<polygon fill="#8dd3c7" stroke="transparent" points="206,-10 206,-30 226,-30 226,-10 206,-10"/>
<text text-anchor="start" x="229.7251" y="-15.4" font-family="sans-serif" font-size="14.00" fill="#000000"> &#160;Module</text>
<polygon fill="#80b1d3" stroke="transparent" points="292,-10 292,-30 312,-30 312,-10 292,-10"/>
<text text-anchor="start" x="315.7812" y="-15.4" font-family="sans-serif" font-size="14.00" fill="#000000"> &#160;Bootstrap</text>
<polygon fill="#fdb462" stroke="transparent" points="389,-10 389,-30 409,-30 409,-10 389,-10"/>
<text text-anchor="start" x="412.6732" y="-15.4" font-family="sans-serif" font-size="14.00" fill="#000000"> &#160;Providers</text>
<polygon fill="#fb8072" stroke="transparent" points="485,-10 485,-30 505,-30 505,-10 485,-10"/>
<text text-anchor="start" x="508.7258" y="-15.4" font-family="sans-serif" font-size="14.00" fill="#000000"> &#160;Exports</text>
<g id="clust1" class="cluster">
<title>cluster_ProductModule</title>
<polygon fill="none" stroke="#000000" stroke-dasharray="1,5" points="8,-70 8,-195 646,-195 646,-70 8,-70"/>
</g>
<g id="clust2" class="cluster">
<title>cluster_ProductModule_declarations</title>
<polygon fill="none" stroke="#000000" points="138,-78 138,-130 638,-130 638,-78 138,-78"/>
</g>
<g id="clust6" class="cluster">
<title>cluster_ProductModule_imports</title>
<polygon fill="none" stroke="#000000" points="16,-78 16,-130 130,-130 130,-78 16,-78"/>
</g>
<!-- ProductEditComponent -->
<g id="node1" class="node">
<title>ProductEditComponent</title>
<polygon fill="#ffffb3" stroke="#000000" points="630.2148,-122 481.7852,-122 481.7852,-86 630.2148,-86 630.2148,-122"/>
<text text-anchor="middle" x="556" y="-99.8" font-family="Times,serif" font-size="14.00" fill="#000000">ProductEditComponent</text>
</g>
<!-- ProductModule -->
<g id="node4" class="node">
<title>ProductModule</title>
<polygon fill="#8dd3c7" stroke="#000000" points="358.5982,-187 355.5982,-191 334.5982,-191 331.5982,-187 255.4018,-187 255.4018,-151 358.5982,-151 358.5982,-187"/>
<text text-anchor="middle" x="307" y="-164.8" font-family="Times,serif" font-size="14.00" fill="#000000">ProductModule</text>
</g>
<!-- ProductEditComponent&#45;&gt;ProductModule -->
<g id="edge1" class="edge">
<title>ProductEditComponent&#45;&gt;ProductModule</title>
<path fill="none" stroke="#000000" d="M556,-122.1061C556,-141.3391 556,-169 556,-169 556,-169 368.593,-169 368.593,-169"/>
<polygon fill="#000000" stroke="#000000" points="368.593,-165.5001 358.593,-169 368.5929,-172.5001 368.593,-165.5001"/>
</g>
<!-- ProductListComponent -->
<g id="node2" class="node">
<title>ProductListComponent</title>
<polygon fill="#ffffb3" stroke="#000000" points="464.1596,-122 317.8404,-122 317.8404,-86 464.1596,-86 464.1596,-122"/>
<text text-anchor="middle" x="391" y="-99.8" font-family="Times,serif" font-size="14.00" fill="#000000">ProductListComponent</text>
</g>
<!-- ProductListComponent&#45;&gt;ProductModule -->
<g id="edge2" class="edge">
<title>ProductListComponent&#45;&gt;ProductModule</title>
<path fill="none" stroke="#000000" d="M338.1098,-122.1061C338.1098,-122.1061 338.1098,-140.991 338.1098,-140.991"/>
<polygon fill="#000000" stroke="#000000" points="334.6098,-140.9909 338.1098,-150.991 341.6098,-140.991 334.6098,-140.9909"/>
</g>
<!-- ProductShellComponent -->
<g id="node3" class="node">
<title>ProductShellComponent</title>
<polygon fill="#ffffb3" stroke="#000000" points="299.6596,-122 146.3404,-122 146.3404,-86 299.6596,-86 299.6596,-122"/>
<text text-anchor="middle" x="223" y="-99.8" font-family="Times,serif" font-size="14.00" fill="#000000">ProductShellComponent</text>
</g>
<!-- ProductShellComponent&#45;&gt;ProductModule -->
<g id="edge3" class="edge">
<title>ProductShellComponent&#45;&gt;ProductModule</title>
<path fill="none" stroke="#000000" d="M277.6403,-122.1061C277.6403,-122.1061 277.6403,-140.991 277.6403,-140.991"/>
<polygon fill="#000000" stroke="#000000" points="274.1403,-140.9909 277.6403,-150.991 281.1403,-140.991 274.1403,-140.9909"/>
</g>
<!-- SharedModule -->
<g id="node5" class="node">
<title>SharedModule</title>
<polygon fill="#8dd3c7" stroke="#000000" points="122.4231,-122 119.4231,-126 98.4231,-126 95.4231,-122 23.5769,-122 23.5769,-86 122.4231,-86 122.4231,-122"/>
<text text-anchor="middle" x="73" y="-99.8" font-family="Times,serif" font-size="14.00" fill="#000000">SharedModule</text>
</g>
<!-- SharedModule&#45;&gt;ProductModule -->
<g id="edge4" class="edge">
<title>SharedModule&#45;&gt;ProductModule</title>
<path fill="none" stroke="#000000" d="M73,-122.1061C73,-141.3391 73,-169 73,-169 73,-169 245.358,-169 245.358,-169"/>
<polygon fill="#000000" stroke="#000000" points="245.3581,-172.5001 255.358,-169 245.358,-165.5001 245.3581,-172.5001"/>
</g>
</g>
</svg>
