<?xml version="1.0" encoding="UTF-8" standalone="no"?>
<!DOCTYPE svg PUBLIC "-//W3C//DTD SVG 1.1//EN"
 "http://www.w3.org/Graphics/SVG/1.1/DTD/svg11.dtd">
<!-- Generated by graphviz version 2.40.1 (20161225.0304)
 -->
<!-- Title: dependencies Pages: 1 -->
<svg width="1668pt" height="360pt"
 viewBox="0.00 0.00 1668.00 360.00" xmlns="http://www.w3.org/2000/svg" xmlns:xlink="http://www.w3.org/1999/xlink">
<g id="graph0" class="graph" transform="scale(1 1) rotate(0) translate(4 356)">
<title>dependencies</title>
<polygon fill="#ffffff" stroke="transparent" points="-4,4 -4,-356 1664,-356 1664,4 -4,4"/>
<text text-anchor="start" x="809.0091" y="-42.4" font-family="sans-serif" font-weight="bold" font-size="14.00" fill="#000000">Legend</text>
<polygon fill="#ffffb3" stroke="transparent" points="596,-10 596,-30 616,-30 616,-10 596,-10"/>
<text text-anchor="start" x="619.629" y="-15.4" font-family="sans-serif" font-size="14.00" fill="#000000"> &#160;Declarations</text>
<polygon fill="#8dd3c7" stroke="transparent" points="709,-10 709,-30 729,-30 729,-10 709,-10"/>
<text text-anchor="start" x="732.7251" y="-15.4" font-family="sans-serif" font-size="14.00" fill="#000000"> &#160;Module</text>
<polygon fill="#80b1d3" stroke="transparent" points="795,-10 795,-30 815,-30 815,-10 795,-10"/>
<text text-anchor="start" x="818.7812" y="-15.4" font-family="sans-serif" font-size="14.00" fill="#000000"> &#160;Bootstrap</text>
<polygon fill="#fdb462" stroke="transparent" points="892,-10 892,-30 912,-30 912,-10 892,-10"/>
<text text-anchor="start" x="915.6732" y="-15.4" font-family="sans-serif" font-size="14.00" fill="#000000"> &#160;Providers</text>
<polygon fill="#fb8072" stroke="transparent" points="988,-10 988,-30 1008,-30 1008,-10 988,-10"/>
<text text-anchor="start" x="1011.7258" y="-15.4" font-family="sans-serif" font-size="14.00" fill="#000000"> &#160;Exports</text>
<g id="clust1" class="cluster">
<title>cluster_AppModule</title>
<polygon fill="none" stroke="#000000" stroke-dasharray="1,5" points="661,-146 661,-344 1652,-344 1652,-146 661,-146"/>
</g>
<g id="clust2" class="cluster">
<title>cluster_AppModule_declarations</title>
<polygon fill="none" stroke="#000000" points="925,-154 925,-206 1644,-206 1644,-154 925,-154"/>
</g>
<g id="clust8" class="cluster">
<title>cluster_AppModule_imports</title>
<polygon fill="none" stroke="#000000" points="669,-154 669,-206 917,-206 917,-154 669,-154"/>
</g>
<g id="clust10" class="cluster">
<title>cluster_AppModule_bootstrap</title>
<polygon fill="none" stroke="#000000" points="1079,-284 1079,-336 1203,-336 1203,-284 1079,-284"/>
</g>
<g id="clust18" class="cluster">
<title>cluster_ProductModule</title>
<polygon fill="none" stroke="#000000" stroke-dasharray="1,5" points="8,-70 8,-206 646,-206 646,-70 8,-70"/>
</g>
<g id="clust19" class="cluster">
<title>cluster_ProductModule_declarations</title>
<polygon fill="none" stroke="#000000" points="16,-78 16,-130 516,-130 516,-78 16,-78"/>
</g>
<g id="clust23" class="cluster">
<title>cluster_ProductModule_imports</title>
<polygon fill="none" stroke="#000000" points="524,-78 524,-130 638,-130 638,-78 524,-78"/>
</g>
<g id="clust33" class="cluster">
<title>cluster_UserModule</title>
<polygon fill="none" stroke="#000000" stroke-dasharray="1,5" points="654,-70 654,-138 800,-138 800,-70 654,-70"/>
</g>
<g id="clust34" class="cluster">
<title>cluster_UserModule_declarations</title>
<polygon fill="none" stroke="#000000" points="662,-78 662,-130 792,-130 792,-78 662,-78"/>
</g>
<!-- AppComponent -->
<g id="node1" class="node">
<title>AppComponent</title>
<polygon fill="#ffffb3" stroke="#000000" points="1635.9399,-198 1530.0601,-198 1530.0601,-162 1635.9399,-162 1635.9399,-198"/>
<text text-anchor="middle" x="1583" y="-175.8" font-family="Times,serif" font-size="14.00" fill="#000000">AppComponent</text>
</g>
<!-- AppModule -->
<g id="node6" class="node">
<title>AppModule</title>
<polygon fill="#8dd3c7" stroke="#000000" points="1182.6571,-263 1179.6571,-267 1158.6571,-267 1155.6571,-263 1099.3429,-263 1099.3429,-227 1182.6571,-227 1182.6571,-263"/>
<text text-anchor="middle" x="1141" y="-240.8" font-family="Times,serif" font-size="14.00" fill="#000000">AppModule</text>
</g>
<!-- AppComponent&#45;&gt;AppModule -->
<g id="edge1" class="edge">
<title>AppComponent&#45;&gt;AppModule</title>
<path fill="none" stroke="#000000" d="M1583,-198.2921C1583,-220.2057 1583,-254 1583,-254 1583,-254 1192.9808,-254 1192.9808,-254"/>
<polygon fill="#000000" stroke="#000000" points="1192.9808,-250.5001 1182.9808,-254 1192.9807,-257.5001 1192.9808,-250.5001"/>
</g>
<!-- MenuComponent -->
<g id="node2" class="node">
<title>MenuComponent</title>
<polygon fill="#ffffb3" stroke="#000000" points="1511.9916,-198 1398.0084,-198 1398.0084,-162 1511.9916,-162 1511.9916,-198"/>
<text text-anchor="middle" x="1455" y="-175.8" font-family="Times,serif" font-size="14.00" fill="#000000">MenuComponent</text>
</g>
<!-- MenuComponent&#45;&gt;AppModule -->
<g id="edge2" class="edge">
<title>MenuComponent&#45;&gt;AppModule</title>
<path fill="none" stroke="#000000" d="M1455,-198.1061C1455,-217.3391 1455,-245 1455,-245 1455,-245 1192.6968,-245 1192.6968,-245"/>
<polygon fill="#000000" stroke="#000000" points="1192.6968,-241.5001 1182.6968,-245 1192.6967,-248.5001 1192.6968,-241.5001"/>
</g>
<!-- PageNotFoundComponent -->
<g id="node3" class="node">
<title>PageNotFoundComponent</title>
<polygon fill="#ffffb3" stroke="#000000" points="1379.8243,-198 1214.1757,-198 1214.1757,-162 1379.8243,-162 1379.8243,-198"/>
<text text-anchor="middle" x="1297" y="-175.8" font-family="Times,serif" font-size="14.00" fill="#000000">PageNotFoundComponent</text>
</g>
<!-- PageNotFoundComponent&#45;&gt;AppModule -->
<g id="edge3" class="edge">
<title>PageNotFoundComponent&#45;&gt;AppModule</title>
<path fill="none" stroke="#000000" d="M1297,-198.027C1297,-214.3976 1297,-236 1297,-236 1297,-236 1192.8051,-236 1192.8051,-236"/>
<polygon fill="#000000" stroke="#000000" points="1192.8052,-232.5001 1182.8051,-236 1192.8051,-239.5001 1192.8052,-232.5001"/>
</g>
<!-- ShellComponent -->
<g id="node4" class="node">
<title>ShellComponent</title>
<polygon fill="#ffffb3" stroke="#000000" points="1196.1109,-198 1085.8891,-198 1085.8891,-162 1196.1109,-162 1196.1109,-198"/>
<text text-anchor="middle" x="1141" y="-175.8" font-family="Times,serif" font-size="14.00" fill="#000000">ShellComponent</text>
</g>
<!-- ShellComponent&#45;&gt;AppModule -->
<g id="edge4" class="edge">
<title>ShellComponent&#45;&gt;AppModule</title>
<path fill="none" stroke="#000000" d="M1141,-198.1061C1141,-198.1061 1141,-216.991 1141,-216.991"/>
<polygon fill="#000000" stroke="#000000" points="1137.5001,-216.9909 1141,-226.991 1144.5001,-216.991 1137.5001,-216.9909"/>
</g>
<!-- WelcomeComponent -->
<g id="node5" class="node">
<title>WelcomeComponent</title>
<polygon fill="#ffffb3" stroke="#000000" points="1067.472,-198 932.528,-198 932.528,-162 1067.472,-162 1067.472,-198"/>
<text text-anchor="middle" x="1000" y="-175.8" font-family="Times,serif" font-size="14.00" fill="#000000">WelcomeComponent</text>
</g>
<!-- WelcomeComponent&#45;&gt;AppModule -->
<g id="edge5" class="edge">
<title>WelcomeComponent&#45;&gt;AppModule</title>
<path fill="none" stroke="#000000" d="M1000,-198.027C1000,-214.3976 1000,-236 1000,-236 1000,-236 1089.0771,-236 1089.0771,-236"/>
<polygon fill="#000000" stroke="#000000" points="1089.0771,-239.5001 1099.0771,-236 1089.0771,-232.5001 1089.0771,-239.5001"/>
</g>
<!-- AppComponent  -->
<g id="node9" class="node">
<title>AppComponent </title>
<polygon fill="#80b1d3" stroke="#000000" points="1195.439,-328 1086.561,-328 1086.561,-292 1195.439,-292 1195.439,-328"/>
<text text-anchor="middle" x="1141" y="-305.8" font-family="Times,serif" font-size="14.00" fill="#000000">AppComponent </text>
</g>
<!-- AppModule&#45;&gt;AppComponent  -->
<g id="edge8" class="edge">
<title>AppModule&#45;&gt;AppComponent </title>
<path fill="none" stroke="#000000" stroke-dasharray="1,5" d="M1141,-263.1061C1141,-263.1061 1141,-281.991 1141,-281.991"/>
<polygon fill="#000000" stroke="#000000" points="1137.5001,-281.9909 1141,-291.991 1144.5001,-281.991 1137.5001,-281.9909"/>
</g>
<!-- AppRoutingModule -->
<g id="node7" class="node">
<title>AppRoutingModule</title>
<polygon fill="#8dd3c7" stroke="#000000" points="909.2744,-198 906.2744,-202 885.2744,-202 882.2744,-198 780.7256,-198 780.7256,-162 909.2744,-162 909.2744,-198"/>
<text text-anchor="middle" x="845" y="-175.8" font-family="Times,serif" font-size="14.00" fill="#000000">AppRoutingModule</text>
</g>
<!-- AppRoutingModule&#45;&gt;AppModule -->
<g id="edge6" class="edge">
<title>AppRoutingModule&#45;&gt;AppModule</title>
<path fill="none" stroke="#000000" d="M845,-198.1061C845,-217.3391 845,-245 845,-245 845,-245 1089.2182,-245 1089.2182,-245"/>
<polygon fill="#000000" stroke="#000000" points="1089.2183,-248.5001 1099.2182,-245 1089.2182,-241.5001 1089.2183,-248.5001"/>
</g>
<!-- UserModule -->
<g id="node8" class="node">
<title>UserModule</title>
<polygon fill="#8dd3c7" stroke="#000000" points="762.9762,-198 759.9762,-202 738.9762,-202 735.9762,-198 677.0238,-198 677.0238,-162 762.9762,-162 762.9762,-198"/>
<text text-anchor="middle" x="720" y="-175.8" font-family="Times,serif" font-size="14.00" fill="#000000">UserModule</text>
</g>
<!-- UserModule&#45;&gt;AppModule -->
<g id="edge7" class="edge">
<title>UserModule&#45;&gt;AppModule</title>
<path fill="none" stroke="#000000" d="M720,-198.2921C720,-220.2057 720,-254 720,-254 720,-254 1089.0938,-254 1089.0938,-254"/>
<polygon fill="#000000" stroke="#000000" points="1089.0938,-257.5001 1099.0938,-254 1089.0937,-250.5001 1089.0938,-257.5001"/>
</g>
<!-- ProductEditComponent -->
<g id="node10" class="node">
<title>ProductEditComponent</title>
<polygon fill="#ffffb3" stroke="#000000" points="508.2148,-122 359.7852,-122 359.7852,-86 508.2148,-86 508.2148,-122"/>
<text text-anchor="middle" x="434" y="-99.8" font-family="Times,serif" font-size="14.00" fill="#000000">ProductEditComponent</text>
</g>
<!-- ProductModule -->
<g id="node13" class="node">
<title>ProductModule</title>
<polygon fill="#8dd3c7" stroke="#000000" points="402.5982,-198 399.5982,-202 378.5982,-202 375.5982,-198 299.4018,-198 299.4018,-162 402.5982,-162 402.5982,-198"/>
<text text-anchor="middle" x="351" y="-175.8" font-family="Times,serif" font-size="14.00" fill="#000000">ProductModule</text>
</g>
<!-- ProductEditComponent&#45;&gt;ProductModule -->
<g id="edge9" class="edge">
<title>ProductEditComponent&#45;&gt;ProductModule</title>
<path fill="none" stroke="#000000" d="M381.2209,-122.0109C381.2209,-122.0109 381.2209,-151.855 381.2209,-151.855"/>
<polygon fill="#000000" stroke="#000000" points="377.721,-151.8549 381.2209,-161.855 384.721,-151.855 377.721,-151.8549"/>
</g>
<!-- ProductListComponent -->
<g id="node11" class="node">
<title>ProductListComponent</title>
<polygon fill="#ffffb3" stroke="#000000" points="342.1596,-122 195.8404,-122 195.8404,-86 342.1596,-86 342.1596,-122"/>
<text text-anchor="middle" x="269" y="-99.8" font-family="Times,serif" font-size="14.00" fill="#000000">ProductListComponent</text>
</g>
<!-- ProductListComponent&#45;&gt;ProductModule -->
<g id="edge10" class="edge">
<title>ProductListComponent&#45;&gt;ProductModule</title>
<path fill="none" stroke="#000000" d="M320.8903,-122.0109C320.8903,-122.0109 320.8903,-151.855 320.8903,-151.855"/>
<polygon fill="#000000" stroke="#000000" points="317.3903,-151.8549 320.8903,-161.855 324.3903,-151.855 317.3903,-151.8549"/>
</g>
<!-- ProductShellComponent -->
<g id="node12" class="node">
<title>ProductShellComponent</title>
<polygon fill="#ffffb3" stroke="#000000" points="177.6596,-122 24.3404,-122 24.3404,-86 177.6596,-86 177.6596,-122"/>
<text text-anchor="middle" x="101" y="-99.8" font-family="Times,serif" font-size="14.00" fill="#000000">ProductShellComponent</text>
</g>
<!-- ProductShellComponent&#45;&gt;ProductModule -->
<g id="edge11" class="edge">
<title>ProductShellComponent&#45;&gt;ProductModule</title>
<path fill="none" stroke="#000000" d="M101,-122.0109C101,-144.4852 101,-180 101,-180 101,-180 289.1998,-180 289.1998,-180"/>
<polygon fill="#000000" stroke="#000000" points="289.1999,-183.5001 299.1998,-180 289.1998,-176.5001 289.1999,-183.5001"/>
</g>
<!-- SharedModule -->
<g id="node14" class="node">
<title>SharedModule</title>
<polygon fill="#8dd3c7" stroke="#000000" points="630.4231,-122 627.4231,-126 606.4231,-126 603.4231,-122 531.5769,-122 531.5769,-86 630.4231,-86 630.4231,-122"/>
<text text-anchor="middle" x="581" y="-99.8" font-family="Times,serif" font-size="14.00" fill="#000000">SharedModule</text>
</g>
<!-- SharedModule&#45;&gt;UserModule -->
<g id="edge14" class="edge">
<title>SharedModule&#45;&gt;UserModule</title>
<path fill="none" stroke="#000000" d="M597.4037,-122.1985C597.4037,-146.3563 597.4037,-186 597.4037,-186 597.4037,-186 666.7771,-186 666.7771,-186"/>
<polygon fill="#000000" stroke="#000000" points="666.7772,-189.5001 676.7771,-186 666.7771,-182.5001 666.7772,-189.5001"/>
</g>
<!-- SharedModule&#45;&gt;ProductModule -->
<g id="edge12" class="edge">
<title>SharedModule&#45;&gt;ProductModule</title>
<path fill="none" stroke="#000000" d="M564.5963,-122.0267C564.5963,-142.7672 564.5963,-174 564.5963,-174 564.5963,-174 412.7057,-174 412.7057,-174"/>
<polygon fill="#000000" stroke="#000000" points="412.7057,-170.5001 402.7057,-174 412.7057,-177.5001 412.7057,-170.5001"/>
</g>
<!-- LoginComponent -->
<g id="node15" class="node">
<title>LoginComponent</title>
<polygon fill="#ffffb3" stroke="#000000" points="784.2758,-122 669.7242,-122 669.7242,-86 784.2758,-86 784.2758,-122"/>
<text text-anchor="middle" x="727" y="-99.8" font-family="Times,serif" font-size="14.00" fill="#000000">LoginComponent</text>
</g>
<!-- LoginComponent&#45;&gt;UserModule -->
<g id="edge13" class="edge">
<title>LoginComponent&#45;&gt;UserModule</title>
<path fill="none" stroke="#000000" d="M720,-122.0109C720,-122.0109 720,-151.855 720,-151.855"/>
<polygon fill="#000000" stroke="#000000" points="716.5001,-151.8549 720,-161.855 723.5001,-151.855 716.5001,-151.8549"/>
</g>
</g>
</svg>
